<mxfile host="app.diagrams.net" modified="2024-02-13T05:03:24.421Z" agent="Mozilla/5.0 (Windows NT 10.0; Win64; x64) AppleWebKit/537.36 (KHTML, like Gecko) Chrome/120.0.0.0 YaBrowser/24.1.0.0 Safari/537.36" etag="GiFhUa-LzzbgPYQri8gy" version="23.1.2" type="github">
  <diagram name="Page-1" id="74e2e168-ea6b-b213-b513-2b3c1d86103e">
    <mxGraphModel dx="4097" dy="2260" grid="1" gridSize="10" guides="1" tooltips="1" connect="1" arrows="1" fold="1" page="1" pageScale="1" pageWidth="1100" pageHeight="850" background="none" math="0" shadow="0">
      <root>
        <mxCell id="0" />
        <mxCell id="1" parent="0" />
        <mxCell id="77e6c97f196da883-1" value="Авторизация" style="swimlane;html=1;childLayout=stackLayout;startSize=20;rounded=0;shadow=0;labelBackgroundColor=none;strokeWidth=1;fontFamily=Verdana;fontSize=8;align=center;" parent="1" vertex="1">
          <mxGeometry x="60" y="290" width="1000" height="600" as="geometry" />
        </mxCell>
        <mxCell id="77e6c97f196da883-2" value="Мобильное приложение" style="swimlane;html=1;startSize=20;" parent="77e6c97f196da883-1" vertex="1">
          <mxGeometry y="20" width="330" height="580" as="geometry" />
        </mxCell>
        <mxCell id="77e6c97f196da883-8" value="Запрос на авторизацию" style="rounded=1;whiteSpace=wrap;html=1;shadow=0;labelBackgroundColor=none;strokeWidth=1;fontFamily=Verdana;fontSize=8;align=center;" parent="77e6c97f196da883-2" vertex="1">
          <mxGeometry x="115" y="60" width="100" height="60" as="geometry" />
        </mxCell>
        <mxCell id="77e6c97f196da883-10" value="Отображается сообщение о том, что пользователь не найден" style="rounded=1;whiteSpace=wrap;html=1;shadow=0;labelBackgroundColor=none;strokeWidth=1;fontFamily=Verdana;fontSize=8;align=center;" parent="77e6c97f196da883-2" vertex="1">
          <mxGeometry x="190" y="320" width="100" height="60" as="geometry" />
        </mxCell>
        <mxCell id="v-ftOJANpUewum_d6OfY-17" value="Отображается сообщение о том, что пользователь не найден" style="rounded=1;whiteSpace=wrap;html=1;shadow=0;labelBackgroundColor=none;strokeWidth=1;fontFamily=Verdana;fontSize=8;align=center;" parent="77e6c97f196da883-2" vertex="1">
          <mxGeometry x="190" y="410" width="100" height="60" as="geometry" />
        </mxCell>
        <mxCell id="v-ftOJANpUewum_d6OfY-19" value="Пользователь успешно прошёл авторизацию" style="rounded=1;whiteSpace=wrap;html=1;shadow=0;labelBackgroundColor=none;strokeWidth=1;fontFamily=Verdana;fontSize=8;align=center;" parent="77e6c97f196da883-2" vertex="1">
          <mxGeometry x="190" y="500" width="100" height="60" as="geometry" />
        </mxCell>
        <mxCell id="77e6c97f196da883-26" style="edgeStyle=orthogonalEdgeStyle;rounded=1;html=1;labelBackgroundColor=none;startArrow=none;startFill=0;startSize=5;endArrow=classicThin;endFill=1;endSize=5;jettySize=auto;orthogonalLoop=1;strokeWidth=1;fontFamily=Verdana;fontSize=8" parent="77e6c97f196da883-1" source="77e6c97f196da883-8" target="77e6c97f196da883-11" edge="1">
          <mxGeometry relative="1" as="geometry" />
        </mxCell>
        <mxCell id="77e6c97f196da883-3" value="Сайт" style="swimlane;html=1;startSize=20;" parent="77e6c97f196da883-1" vertex="1">
          <mxGeometry x="330" y="20" width="670" height="580" as="geometry" />
        </mxCell>
        <mxCell id="77e6c97f196da883-11" value="Поиск пользователя" style="rounded=1;whiteSpace=wrap;html=1;shadow=0;labelBackgroundColor=none;strokeWidth=1;fontFamily=Verdana;fontSize=8;align=center;" parent="77e6c97f196da883-3" vertex="1">
          <mxGeometry x="285" y="60" width="100" height="60" as="geometry" />
        </mxCell>
        <mxCell id="v-ftOJANpUewum_d6OfY-1" value="&lt;font style=&quot;font-size: 10px;&quot;&gt;Пользователь найден?&lt;/font&gt;" style="rhombus;whiteSpace=wrap;html=1;" parent="77e6c97f196da883-3" vertex="1">
          <mxGeometry x="282.5" y="150" width="105" height="80" as="geometry" />
        </mxCell>
        <mxCell id="v-ftOJANpUewum_d6OfY-2" value="" style="endArrow=classic;html=1;rounded=0;exitX=0.5;exitY=1;exitDx=0;exitDy=0;entryX=0.5;entryY=0;entryDx=0;entryDy=0;" parent="77e6c97f196da883-3" source="77e6c97f196da883-11" target="v-ftOJANpUewum_d6OfY-1" edge="1">
          <mxGeometry width="50" height="50" relative="1" as="geometry">
            <mxPoint x="430" y="160" as="sourcePoint" />
            <mxPoint x="480" y="110" as="targetPoint" />
          </mxGeometry>
        </mxCell>
        <mxCell id="v-ftOJANpUewum_d6OfY-3" value="Ответ о том, что пользователь не найден" style="rounded=1;whiteSpace=wrap;html=1;shadow=0;labelBackgroundColor=none;strokeWidth=1;fontFamily=Verdana;fontSize=8;align=center;" parent="77e6c97f196da883-3" vertex="1">
          <mxGeometry x="150" y="230" width="100" height="60" as="geometry" />
        </mxCell>
        <mxCell id="v-ftOJANpUewum_d6OfY-4" value="" style="endArrow=classic;html=1;rounded=0;exitX=0;exitY=0.5;exitDx=0;exitDy=0;entryX=0.5;entryY=0;entryDx=0;entryDy=0;edgeStyle=orthogonalEdgeStyle;" parent="77e6c97f196da883-3" source="v-ftOJANpUewum_d6OfY-1" target="v-ftOJANpUewum_d6OfY-3" edge="1">
          <mxGeometry width="50" height="50" relative="1" as="geometry">
            <mxPoint x="200" y="200" as="sourcePoint" />
            <mxPoint x="250" y="150" as="targetPoint" />
          </mxGeometry>
        </mxCell>
        <mxCell id="v-ftOJANpUewum_d6OfY-5" value="Нет" style="edgeLabel;html=1;align=center;verticalAlign=middle;resizable=0;points=[];" parent="v-ftOJANpUewum_d6OfY-4" vertex="1" connectable="0">
          <mxGeometry x="-0.7362" y="-2" relative="1" as="geometry">
            <mxPoint as="offset" />
          </mxGeometry>
        </mxCell>
        <mxCell id="v-ftOJANpUewum_d6OfY-7" value="&lt;font style=&quot;font-size: 10px;&quot;&gt;Пароль верный?&lt;/font&gt;" style="rhombus;whiteSpace=wrap;html=1;" parent="77e6c97f196da883-3" vertex="1">
          <mxGeometry x="410" y="230" width="105" height="80" as="geometry" />
        </mxCell>
        <mxCell id="v-ftOJANpUewum_d6OfY-8" value="" style="endArrow=classic;html=1;rounded=0;exitX=1;exitY=0.5;exitDx=0;exitDy=0;entryX=0.5;entryY=0;entryDx=0;entryDy=0;edgeStyle=orthogonalEdgeStyle;" parent="77e6c97f196da883-3" source="v-ftOJANpUewum_d6OfY-1" target="v-ftOJANpUewum_d6OfY-7" edge="1">
          <mxGeometry width="50" height="50" relative="1" as="geometry">
            <mxPoint x="400" y="200" as="sourcePoint" />
            <mxPoint x="500" y="160" as="targetPoint" />
          </mxGeometry>
        </mxCell>
        <mxCell id="v-ftOJANpUewum_d6OfY-14" value="Да" style="edgeLabel;html=1;align=center;verticalAlign=middle;resizable=0;points=[];" parent="v-ftOJANpUewum_d6OfY-8" vertex="1" connectable="0">
          <mxGeometry x="-0.6113" relative="1" as="geometry">
            <mxPoint as="offset" />
          </mxGeometry>
        </mxCell>
        <mxCell id="v-ftOJANpUewum_d6OfY-9" value="Ответ о том, что пароль неверный" style="rounded=1;whiteSpace=wrap;html=1;shadow=0;labelBackgroundColor=none;strokeWidth=1;fontFamily=Verdana;fontSize=8;align=center;" parent="77e6c97f196da883-3" vertex="1">
          <mxGeometry x="300" y="310" width="100" height="60" as="geometry" />
        </mxCell>
        <mxCell id="v-ftOJANpUewum_d6OfY-10" value="Возвращает данные пользователя" style="rounded=1;whiteSpace=wrap;html=1;shadow=0;labelBackgroundColor=none;strokeWidth=1;fontFamily=Verdana;fontSize=8;align=center;" parent="77e6c97f196da883-3" vertex="1">
          <mxGeometry x="530" y="310" width="100" height="60" as="geometry" />
        </mxCell>
        <mxCell id="v-ftOJANpUewum_d6OfY-11" value="" style="endArrow=classic;html=1;rounded=0;exitX=0;exitY=0.5;exitDx=0;exitDy=0;entryX=0.5;entryY=0;entryDx=0;entryDy=0;edgeStyle=orthogonalEdgeStyle;" parent="77e6c97f196da883-3" source="v-ftOJANpUewum_d6OfY-7" target="v-ftOJANpUewum_d6OfY-9" edge="1">
          <mxGeometry width="50" height="50" relative="1" as="geometry">
            <mxPoint x="250" y="330" as="sourcePoint" />
            <mxPoint x="300" y="280" as="targetPoint" />
          </mxGeometry>
        </mxCell>
        <mxCell id="v-ftOJANpUewum_d6OfY-15" value="Нет" style="edgeLabel;html=1;align=center;verticalAlign=middle;resizable=0;points=[];" parent="v-ftOJANpUewum_d6OfY-11" vertex="1" connectable="0">
          <mxGeometry x="-0.7606" y="2" relative="1" as="geometry">
            <mxPoint as="offset" />
          </mxGeometry>
        </mxCell>
        <mxCell id="v-ftOJANpUewum_d6OfY-12" value="" style="endArrow=classic;html=1;rounded=0;exitX=1;exitY=0.5;exitDx=0;exitDy=0;entryX=0.5;entryY=0;entryDx=0;entryDy=0;edgeStyle=orthogonalEdgeStyle;" parent="77e6c97f196da883-3" source="v-ftOJANpUewum_d6OfY-7" target="v-ftOJANpUewum_d6OfY-10" edge="1">
          <mxGeometry width="50" height="50" relative="1" as="geometry">
            <mxPoint x="420" y="280" as="sourcePoint" />
            <mxPoint x="280" y="360" as="targetPoint" />
          </mxGeometry>
        </mxCell>
        <mxCell id="v-ftOJANpUewum_d6OfY-13" value="Да" style="edgeLabel;html=1;align=center;verticalAlign=middle;resizable=0;points=[];" parent="v-ftOJANpUewum_d6OfY-12" vertex="1" connectable="0">
          <mxGeometry x="-0.6834" y="-1" relative="1" as="geometry">
            <mxPoint as="offset" />
          </mxGeometry>
        </mxCell>
        <mxCell id="v-ftOJANpUewum_d6OfY-16" value="" style="endArrow=classic;html=1;rounded=0;exitX=0.5;exitY=1;exitDx=0;exitDy=0;entryX=0.5;entryY=0;entryDx=0;entryDy=0;edgeStyle=orthogonalEdgeStyle;" parent="77e6c97f196da883-1" source="v-ftOJANpUewum_d6OfY-3" target="77e6c97f196da883-10" edge="1">
          <mxGeometry width="50" height="50" relative="1" as="geometry">
            <mxPoint x="340" y="480" as="sourcePoint" />
            <mxPoint x="390" y="430" as="targetPoint" />
          </mxGeometry>
        </mxCell>
        <mxCell id="v-ftOJANpUewum_d6OfY-18" value="" style="endArrow=classic;html=1;rounded=0;exitX=0.5;exitY=1;exitDx=0;exitDy=0;entryX=0.5;entryY=0;entryDx=0;entryDy=0;edgeStyle=orthogonalEdgeStyle;" parent="77e6c97f196da883-1" source="v-ftOJANpUewum_d6OfY-9" target="v-ftOJANpUewum_d6OfY-17" edge="1">
          <mxGeometry width="50" height="50" relative="1" as="geometry">
            <mxPoint x="540" y="320" as="sourcePoint" />
            <mxPoint x="250" y="365" as="targetPoint" />
            <Array as="points">
              <mxPoint x="680" y="410" />
              <mxPoint x="240" y="410" />
            </Array>
          </mxGeometry>
        </mxCell>
        <mxCell id="v-ftOJANpUewum_d6OfY-20" value="" style="endArrow=classic;html=1;rounded=0;exitX=0.5;exitY=1;exitDx=0;exitDy=0;entryX=0.5;entryY=0;entryDx=0;entryDy=0;edgeStyle=orthogonalEdgeStyle;" parent="77e6c97f196da883-1" source="v-ftOJANpUewum_d6OfY-10" target="v-ftOJANpUewum_d6OfY-19" edge="1">
          <mxGeometry width="50" height="50" relative="1" as="geometry">
            <mxPoint x="690" y="560" as="sourcePoint" />
            <mxPoint x="740" y="510" as="targetPoint" />
            <Array as="points">
              <mxPoint x="910" y="500" />
              <mxPoint x="240" y="500" />
            </Array>
          </mxGeometry>
        </mxCell>
        <mxCell id="v-ftOJANpUewum_d6OfY-21" value="Получить заказы" style="swimlane;html=1;childLayout=stackLayout;startSize=20;rounded=0;shadow=0;labelBackgroundColor=none;strokeWidth=1;fontFamily=Verdana;fontSize=8;align=center;" parent="1" vertex="1">
          <mxGeometry x="60" y="950" width="1000" height="360" as="geometry" />
        </mxCell>
        <mxCell id="v-ftOJANpUewum_d6OfY-22" value="Мобильное приложение" style="swimlane;html=1;startSize=20;" parent="v-ftOJANpUewum_d6OfY-21" vertex="1">
          <mxGeometry y="20" width="330" height="340" as="geometry" />
        </mxCell>
        <mxCell id="v-ftOJANpUewum_d6OfY-23" value="Запрос на получение новых заказов" style="rounded=1;whiteSpace=wrap;html=1;shadow=0;labelBackgroundColor=none;strokeWidth=1;fontFamily=Verdana;fontSize=8;align=center;" parent="v-ftOJANpUewum_d6OfY-22" vertex="1">
          <mxGeometry x="115" y="60" width="100" height="60" as="geometry" />
        </mxCell>
        <mxCell id="v-ftOJANpUewum_d6OfY-24" value="Заказы отображаются на странице" style="rounded=1;whiteSpace=wrap;html=1;shadow=0;labelBackgroundColor=none;strokeWidth=1;fontFamily=Verdana;fontSize=8;align=center;" parent="v-ftOJANpUewum_d6OfY-22" vertex="1">
          <mxGeometry x="190" y="260" width="100" height="60" as="geometry" />
        </mxCell>
        <mxCell id="v-ftOJANpUewum_d6OfY-27" style="edgeStyle=orthogonalEdgeStyle;rounded=1;html=1;labelBackgroundColor=none;startArrow=none;startFill=0;startSize=5;endArrow=classicThin;endFill=1;endSize=5;jettySize=auto;orthogonalLoop=1;strokeWidth=1;fontFamily=Verdana;fontSize=8" parent="v-ftOJANpUewum_d6OfY-21" source="v-ftOJANpUewum_d6OfY-23" target="v-ftOJANpUewum_d6OfY-29" edge="1">
          <mxGeometry relative="1" as="geometry" />
        </mxCell>
        <mxCell id="v-ftOJANpUewum_d6OfY-28" value="Сайт" style="swimlane;html=1;startSize=20;" parent="v-ftOJANpUewum_d6OfY-21" vertex="1">
          <mxGeometry x="330" y="20" width="670" height="340" as="geometry" />
        </mxCell>
        <mxCell id="v-ftOJANpUewum_d6OfY-29" value="Поиск новых заказов" style="rounded=1;whiteSpace=wrap;html=1;shadow=0;labelBackgroundColor=none;strokeWidth=1;fontFamily=Verdana;fontSize=8;align=center;" parent="v-ftOJANpUewum_d6OfY-28" vertex="1">
          <mxGeometry x="285" y="60" width="100" height="60" as="geometry" />
        </mxCell>
        <mxCell id="v-ftOJANpUewum_d6OfY-32" value="Возвращает заказы" style="rounded=1;whiteSpace=wrap;html=1;shadow=0;labelBackgroundColor=none;strokeWidth=1;fontFamily=Verdana;fontSize=8;align=center;" parent="v-ftOJANpUewum_d6OfY-28" vertex="1">
          <mxGeometry x="285" y="140" width="100" height="60" as="geometry" />
        </mxCell>
        <mxCell id="v-ftOJANpUewum_d6OfY-33" value="" style="endArrow=classic;html=1;rounded=0;exitX=0.5;exitY=1;exitDx=0;exitDy=0;entryX=0.5;entryY=0;entryDx=0;entryDy=0;edgeStyle=orthogonalEdgeStyle;" parent="v-ftOJANpUewum_d6OfY-28" source="v-ftOJANpUewum_d6OfY-29" target="v-ftOJANpUewum_d6OfY-32" edge="1">
          <mxGeometry width="50" height="50" relative="1" as="geometry">
            <mxPoint x="282.5" y="190" as="sourcePoint" />
            <mxPoint x="250" y="150" as="targetPoint" />
          </mxGeometry>
        </mxCell>
        <mxCell id="v-ftOJANpUewum_d6OfY-44" value="" style="endArrow=classic;html=1;rounded=0;exitX=0.5;exitY=1;exitDx=0;exitDy=0;entryX=0.5;entryY=0;entryDx=0;entryDy=0;edgeStyle=orthogonalEdgeStyle;" parent="v-ftOJANpUewum_d6OfY-21" source="v-ftOJANpUewum_d6OfY-32" target="v-ftOJANpUewum_d6OfY-24" edge="1">
          <mxGeometry width="50" height="50" relative="1" as="geometry">
            <mxPoint x="340" y="480" as="sourcePoint" />
            <mxPoint x="390" y="430" as="targetPoint" />
            <Array as="points">
              <mxPoint x="665" y="240" />
              <mxPoint x="240" y="240" />
            </Array>
          </mxGeometry>
        </mxCell>
        <mxCell id="v-ftOJANpUewum_d6OfY-49" value="Получить статусы заказов" style="swimlane;html=1;childLayout=stackLayout;startSize=20;rounded=0;shadow=0;labelBackgroundColor=none;strokeWidth=1;fontFamily=Verdana;fontSize=8;align=center;" parent="1" vertex="1">
          <mxGeometry x="1130" y="290" width="1000" height="360" as="geometry" />
        </mxCell>
        <mxCell id="v-ftOJANpUewum_d6OfY-50" value="Мобильное приложение" style="swimlane;html=1;startSize=20;" parent="v-ftOJANpUewum_d6OfY-49" vertex="1">
          <mxGeometry y="20" width="330" height="340" as="geometry" />
        </mxCell>
        <mxCell id="v-ftOJANpUewum_d6OfY-51" value="Запрос на получение статусов заказов" style="rounded=1;whiteSpace=wrap;html=1;shadow=0;labelBackgroundColor=none;strokeWidth=1;fontFamily=Verdana;fontSize=8;align=center;" parent="v-ftOJANpUewum_d6OfY-50" vertex="1">
          <mxGeometry x="115" y="60" width="100" height="60" as="geometry" />
        </mxCell>
        <mxCell id="v-ftOJANpUewum_d6OfY-52" value="Статус отображается в заказе" style="rounded=1;whiteSpace=wrap;html=1;shadow=0;labelBackgroundColor=none;strokeWidth=1;fontFamily=Verdana;fontSize=8;align=center;" parent="v-ftOJANpUewum_d6OfY-50" vertex="1">
          <mxGeometry x="115" y="240" width="100" height="60" as="geometry" />
        </mxCell>
        <mxCell id="v-ftOJANpUewum_d6OfY-53" style="edgeStyle=orthogonalEdgeStyle;rounded=1;html=1;labelBackgroundColor=none;startArrow=none;startFill=0;startSize=5;endArrow=classicThin;endFill=1;endSize=5;jettySize=auto;orthogonalLoop=1;strokeWidth=1;fontFamily=Verdana;fontSize=8" parent="v-ftOJANpUewum_d6OfY-49" source="v-ftOJANpUewum_d6OfY-51" target="v-ftOJANpUewum_d6OfY-55" edge="1">
          <mxGeometry relative="1" as="geometry" />
        </mxCell>
        <mxCell id="v-ftOJANpUewum_d6OfY-54" value="Сайт" style="swimlane;html=1;startSize=20;" parent="v-ftOJANpUewum_d6OfY-49" vertex="1">
          <mxGeometry x="330" y="20" width="670" height="340" as="geometry" />
        </mxCell>
        <mxCell id="v-ftOJANpUewum_d6OfY-55" value="Поиск заказов, для которых необходимо получить статусы" style="rounded=1;whiteSpace=wrap;html=1;shadow=0;labelBackgroundColor=none;strokeWidth=1;fontFamily=Verdana;fontSize=8;align=center;" parent="v-ftOJANpUewum_d6OfY-54" vertex="1">
          <mxGeometry x="285" y="60" width="100" height="60" as="geometry" />
        </mxCell>
        <mxCell id="v-ftOJANpUewum_d6OfY-56" value="Возвращает массив статусов для каждого заказа" style="rounded=1;whiteSpace=wrap;html=1;shadow=0;labelBackgroundColor=none;strokeWidth=1;fontFamily=Verdana;fontSize=8;align=center;" parent="v-ftOJANpUewum_d6OfY-54" vertex="1">
          <mxGeometry x="285" y="140" width="100" height="60" as="geometry" />
        </mxCell>
        <mxCell id="v-ftOJANpUewum_d6OfY-57" value="" style="endArrow=classic;html=1;rounded=0;exitX=0.5;exitY=1;exitDx=0;exitDy=0;entryX=0.5;entryY=0;entryDx=0;entryDy=0;edgeStyle=orthogonalEdgeStyle;" parent="v-ftOJANpUewum_d6OfY-54" source="v-ftOJANpUewum_d6OfY-55" target="v-ftOJANpUewum_d6OfY-56" edge="1">
          <mxGeometry width="50" height="50" relative="1" as="geometry">
            <mxPoint x="282.5" y="190" as="sourcePoint" />
            <mxPoint x="250" y="150" as="targetPoint" />
          </mxGeometry>
        </mxCell>
        <mxCell id="v-ftOJANpUewum_d6OfY-58" value="" style="endArrow=classic;html=1;rounded=0;exitX=0.5;exitY=1;exitDx=0;exitDy=0;entryX=0.5;entryY=0;entryDx=0;entryDy=0;edgeStyle=orthogonalEdgeStyle;" parent="v-ftOJANpUewum_d6OfY-49" source="v-ftOJANpUewum_d6OfY-56" target="v-ftOJANpUewum_d6OfY-52" edge="1">
          <mxGeometry width="50" height="50" relative="1" as="geometry">
            <mxPoint x="340" y="480" as="sourcePoint" />
            <mxPoint x="390" y="430" as="targetPoint" />
            <Array as="points">
              <mxPoint x="665" y="240" />
              <mxPoint x="165" y="240" />
            </Array>
          </mxGeometry>
        </mxCell>
        <mxCell id="v-ftOJANpUewum_d6OfY-59" value="Взять заказ в доставку" style="swimlane;html=1;childLayout=stackLayout;startSize=20;rounded=0;shadow=0;labelBackgroundColor=none;strokeWidth=1;fontFamily=Verdana;fontSize=8;align=center;" parent="1" vertex="1">
          <mxGeometry x="1130" y="690" width="1000" height="630" as="geometry" />
        </mxCell>
        <mxCell id="v-ftOJANpUewum_d6OfY-60" value="Мобильное приложение" style="swimlane;html=1;startSize=20;" parent="v-ftOJANpUewum_d6OfY-59" vertex="1">
          <mxGeometry y="20" width="330" height="610" as="geometry" />
        </mxCell>
        <mxCell id="v-ftOJANpUewum_d6OfY-61" value="Запрос на взятие заказа в доставку" style="rounded=1;whiteSpace=wrap;html=1;shadow=0;labelBackgroundColor=none;strokeWidth=1;fontFamily=Verdana;fontSize=8;align=center;" parent="v-ftOJANpUewum_d6OfY-60" vertex="1">
          <mxGeometry x="115" y="60" width="100" height="60" as="geometry" />
        </mxCell>
        <mxCell id="v-ftOJANpUewum_d6OfY-62" value="Отображается сообщение о том, что произошла непредвиденная ошибка" style="rounded=1;whiteSpace=wrap;html=1;shadow=0;labelBackgroundColor=none;strokeWidth=1;fontFamily=Verdana;fontSize=8;align=center;" parent="v-ftOJANpUewum_d6OfY-60" vertex="1">
          <mxGeometry x="115" y="320" width="100" height="60" as="geometry" />
        </mxCell>
        <mxCell id="v-ftOJANpUewum_d6OfY-90" value="Отображается сообщение о том, что заказ взят в доставку" style="rounded=1;whiteSpace=wrap;html=1;shadow=0;labelBackgroundColor=none;strokeWidth=1;fontFamily=Verdana;fontSize=8;align=center;" parent="v-ftOJANpUewum_d6OfY-60" vertex="1">
          <mxGeometry x="130" y="490" width="100" height="60" as="geometry" />
        </mxCell>
        <mxCell id="v-ftOJANpUewum_d6OfY-63" style="edgeStyle=orthogonalEdgeStyle;rounded=1;html=1;labelBackgroundColor=none;startArrow=none;startFill=0;startSize=5;endArrow=classicThin;endFill=1;endSize=5;jettySize=auto;orthogonalLoop=1;strokeWidth=1;fontFamily=Verdana;fontSize=8" parent="v-ftOJANpUewum_d6OfY-59" source="v-ftOJANpUewum_d6OfY-61" target="v-ftOJANpUewum_d6OfY-65" edge="1">
          <mxGeometry relative="1" as="geometry" />
        </mxCell>
        <mxCell id="v-ftOJANpUewum_d6OfY-64" value="Сайт" style="swimlane;html=1;startSize=20;" parent="v-ftOJANpUewum_d6OfY-59" vertex="1">
          <mxGeometry x="330" y="20" width="670" height="610" as="geometry" />
        </mxCell>
        <mxCell id="v-ftOJANpUewum_d6OfY-65" value="Поиск заказа" style="rounded=1;whiteSpace=wrap;html=1;shadow=0;labelBackgroundColor=none;strokeWidth=1;fontFamily=Verdana;fontSize=8;align=center;" parent="v-ftOJANpUewum_d6OfY-64" vertex="1">
          <mxGeometry x="285" y="60" width="100" height="60" as="geometry" />
        </mxCell>
        <mxCell id="v-ftOJANpUewum_d6OfY-67" value="" style="endArrow=classic;html=1;rounded=0;exitX=0.5;exitY=1;exitDx=0;exitDy=0;entryX=0.5;entryY=0;entryDx=0;entryDy=0;edgeStyle=orthogonalEdgeStyle;" parent="v-ftOJANpUewum_d6OfY-64" source="v-ftOJANpUewum_d6OfY-65" target="v-ftOJANpUewum_d6OfY-69" edge="1">
          <mxGeometry width="50" height="50" relative="1" as="geometry">
            <mxPoint x="282.5" y="190" as="sourcePoint" />
            <mxPoint x="335" y="140" as="targetPoint" />
          </mxGeometry>
        </mxCell>
        <mxCell id="v-ftOJANpUewum_d6OfY-69" value="&lt;font style=&quot;font-size: 10px;&quot;&gt;Заказ найден?&lt;/font&gt;" style="rhombus;whiteSpace=wrap;html=1;" parent="v-ftOJANpUewum_d6OfY-64" vertex="1">
          <mxGeometry x="282.5" y="140" width="105" height="80" as="geometry" />
        </mxCell>
        <mxCell id="v-ftOJANpUewum_d6OfY-70" value="Ответ о том, что заказ не найден" style="rounded=1;whiteSpace=wrap;html=1;shadow=0;labelBackgroundColor=none;strokeWidth=1;fontFamily=Verdana;fontSize=8;align=center;" parent="v-ftOJANpUewum_d6OfY-64" vertex="1">
          <mxGeometry x="180" y="220" width="100" height="60" as="geometry" />
        </mxCell>
        <mxCell id="v-ftOJANpUewum_d6OfY-71" value="" style="endArrow=classic;html=1;rounded=0;exitX=0;exitY=0.5;exitDx=0;exitDy=0;entryX=0.5;entryY=0;entryDx=0;entryDy=0;edgeStyle=orthogonalEdgeStyle;" parent="v-ftOJANpUewum_d6OfY-64" source="v-ftOJANpUewum_d6OfY-69" target="v-ftOJANpUewum_d6OfY-70" edge="1">
          <mxGeometry width="50" height="50" relative="1" as="geometry">
            <mxPoint x="100" y="200" as="sourcePoint" />
            <mxPoint x="150" y="150" as="targetPoint" />
          </mxGeometry>
        </mxCell>
        <mxCell id="v-ftOJANpUewum_d6OfY-72" value="Нет" style="edgeLabel;html=1;align=center;verticalAlign=middle;resizable=0;points=[];" parent="v-ftOJANpUewum_d6OfY-71" vertex="1" connectable="0">
          <mxGeometry x="-0.6637" y="3" relative="1" as="geometry">
            <mxPoint as="offset" />
          </mxGeometry>
        </mxCell>
        <mxCell id="v-ftOJANpUewum_d6OfY-75" value="" style="endArrow=classic;html=1;rounded=0;exitX=1;exitY=0.5;exitDx=0;exitDy=0;entryX=0.5;entryY=0;entryDx=0;entryDy=0;edgeStyle=orthogonalEdgeStyle;" parent="v-ftOJANpUewum_d6OfY-64" source="v-ftOJANpUewum_d6OfY-69" target="v-ftOJANpUewum_d6OfY-82" edge="1">
          <mxGeometry width="50" height="50" relative="1" as="geometry">
            <mxPoint x="520" y="130" as="sourcePoint" />
            <mxPoint x="450" y="220" as="targetPoint" />
          </mxGeometry>
        </mxCell>
        <mxCell id="v-ftOJANpUewum_d6OfY-76" value="Да" style="edgeLabel;html=1;align=center;verticalAlign=middle;resizable=0;points=[];" parent="v-ftOJANpUewum_d6OfY-75" vertex="1" connectable="0">
          <mxGeometry x="-0.4676" y="1" relative="1" as="geometry">
            <mxPoint as="offset" />
          </mxGeometry>
        </mxCell>
        <mxCell id="v-ftOJANpUewum_d6OfY-77" value="" style="endArrow=classic;html=1;rounded=0;exitX=0.5;exitY=1;exitDx=0;exitDy=0;entryX=0.5;entryY=0;entryDx=0;entryDy=0;" parent="v-ftOJANpUewum_d6OfY-64" edge="1">
          <mxGeometry width="50" height="50" relative="1" as="geometry">
            <mxPoint x="450" y="280.0000000000001" as="sourcePoint" />
            <mxPoint x="350" y="330" as="targetPoint" />
          </mxGeometry>
        </mxCell>
        <mxCell id="v-ftOJANpUewum_d6OfY-82" value="&lt;font style=&quot;font-size: 10px;&quot;&gt;Заказ уже взят другим курьером?&lt;/font&gt;" style="rhombus;whiteSpace=wrap;html=1;" parent="v-ftOJANpUewum_d6OfY-64" vertex="1">
          <mxGeometry x="385" y="220" width="125" height="80" as="geometry" />
        </mxCell>
        <mxCell id="v-ftOJANpUewum_d6OfY-84" value="Отправить ответ о том, что заказ уже взят другим курьером" style="rounded=1;whiteSpace=wrap;html=1;shadow=0;labelBackgroundColor=none;strokeWidth=1;fontFamily=Verdana;fontSize=8;align=center;" parent="v-ftOJANpUewum_d6OfY-64" vertex="1">
          <mxGeometry x="510" y="320" width="100" height="60" as="geometry" />
        </mxCell>
        <mxCell id="v-ftOJANpUewum_d6OfY-85" value="" style="endArrow=classic;html=1;rounded=0;exitX=1;exitY=0.5;exitDx=0;exitDy=0;entryX=0.5;entryY=0;entryDx=0;entryDy=0;edgeStyle=orthogonalEdgeStyle;" parent="v-ftOJANpUewum_d6OfY-64" source="v-ftOJANpUewum_d6OfY-82" target="v-ftOJANpUewum_d6OfY-84" edge="1">
          <mxGeometry width="50" height="50" relative="1" as="geometry">
            <mxPoint x="480" y="410" as="sourcePoint" />
            <mxPoint x="530" y="360" as="targetPoint" />
          </mxGeometry>
        </mxCell>
        <mxCell id="v-ftOJANpUewum_d6OfY-86" value="Да" style="edgeLabel;html=1;align=center;verticalAlign=middle;resizable=0;points=[];" parent="v-ftOJANpUewum_d6OfY-85" vertex="1" connectable="0">
          <mxGeometry x="-0.4992" y="2" relative="1" as="geometry">
            <mxPoint as="offset" />
          </mxGeometry>
        </mxCell>
        <mxCell id="v-ftOJANpUewum_d6OfY-80" value="Закрепить заказ за курьером" style="rounded=1;whiteSpace=wrap;html=1;shadow=0;labelBackgroundColor=none;strokeWidth=1;fontFamily=Verdana;fontSize=8;align=center;" parent="v-ftOJANpUewum_d6OfY-64" vertex="1">
          <mxGeometry x="260" y="300" width="100" height="60" as="geometry" />
        </mxCell>
        <mxCell id="v-ftOJANpUewum_d6OfY-81" value="Отправить ответ о том, что заказ успешно взят в доставку" style="rounded=1;whiteSpace=wrap;html=1;shadow=0;labelBackgroundColor=none;strokeWidth=1;fontFamily=Verdana;fontSize=8;align=center;" parent="v-ftOJANpUewum_d6OfY-64" vertex="1">
          <mxGeometry x="260" y="390" width="100" height="60" as="geometry" />
        </mxCell>
        <mxCell id="v-ftOJANpUewum_d6OfY-87" value="" style="endArrow=classic;html=1;rounded=0;exitX=0;exitY=0.5;exitDx=0;exitDy=0;entryX=0.5;entryY=0;entryDx=0;entryDy=0;edgeStyle=orthogonalEdgeStyle;" parent="v-ftOJANpUewum_d6OfY-64" source="v-ftOJANpUewum_d6OfY-82" target="v-ftOJANpUewum_d6OfY-80" edge="1">
          <mxGeometry width="50" height="50" relative="1" as="geometry">
            <mxPoint x="330" y="300" as="sourcePoint" />
            <mxPoint x="380" y="250" as="targetPoint" />
          </mxGeometry>
        </mxCell>
        <mxCell id="v-ftOJANpUewum_d6OfY-88" value="Нет" style="edgeLabel;html=1;align=center;verticalAlign=middle;resizable=0;points=[];" parent="v-ftOJANpUewum_d6OfY-87" vertex="1" connectable="0">
          <mxGeometry x="-0.6065" y="-1" relative="1" as="geometry">
            <mxPoint as="offset" />
          </mxGeometry>
        </mxCell>
        <mxCell id="v-ftOJANpUewum_d6OfY-89" value="" style="endArrow=classic;html=1;rounded=0;exitX=0.5;exitY=1;exitDx=0;exitDy=0;entryX=0.5;entryY=0;entryDx=0;entryDy=0;" parent="v-ftOJANpUewum_d6OfY-64" source="v-ftOJANpUewum_d6OfY-80" target="v-ftOJANpUewum_d6OfY-81" edge="1">
          <mxGeometry width="50" height="50" relative="1" as="geometry">
            <mxPoint x="230" y="420" as="sourcePoint" />
            <mxPoint x="280" y="370" as="targetPoint" />
          </mxGeometry>
        </mxCell>
        <mxCell id="v-ftOJANpUewum_d6OfY-78" value="" style="endArrow=classic;html=1;rounded=0;exitX=0.5;exitY=1;exitDx=0;exitDy=0;entryX=0.5;entryY=0;entryDx=0;entryDy=0;edgeStyle=orthogonalEdgeStyle;" parent="v-ftOJANpUewum_d6OfY-59" source="v-ftOJANpUewum_d6OfY-70" target="v-ftOJANpUewum_d6OfY-62" edge="1">
          <mxGeometry width="50" height="50" relative="1" as="geometry">
            <mxPoint x="530" y="420" as="sourcePoint" />
            <mxPoint x="580" y="370" as="targetPoint" />
            <Array as="points">
              <mxPoint x="560" y="320" />
              <mxPoint x="165" y="320" />
            </Array>
          </mxGeometry>
        </mxCell>
        <mxCell id="v-ftOJANpUewum_d6OfY-91" value="" style="endArrow=classic;html=1;rounded=0;exitX=0.5;exitY=1;exitDx=0;exitDy=0;entryX=0.5;entryY=0;entryDx=0;entryDy=0;edgeStyle=orthogonalEdgeStyle;" parent="v-ftOJANpUewum_d6OfY-59" source="v-ftOJANpUewum_d6OfY-81" target="v-ftOJANpUewum_d6OfY-90" edge="1">
          <mxGeometry width="50" height="50" relative="1" as="geometry">
            <mxPoint x="460" y="550" as="sourcePoint" />
            <mxPoint x="510" y="500" as="targetPoint" />
          </mxGeometry>
        </mxCell>
      </root>
    </mxGraphModel>
  </diagram>
</mxfile>
